<?xml version="1.0" standalone="no"?>
<!DOCTYPE svg PUBLIC "-//W3C//DTD SVG 20010904//EN"
 "http://www.w3.org/TR/2001/REC-SVG-20010904/DTD/svg10.dtd">
<svg version="1.0" xmlns="http://www.w3.org/2000/svg"
 width="800.000000pt" height="600.000000pt" viewBox="0 0 800.000000 600.000000"
 preserveAspectRatio="xMidYMid meet">

<g transform="translate(0.000000,600.000000) scale(0.100000,-0.100000)"
fill="#000000" stroke="none">
<path d="M3825 5744 c-49 -19 -98 -37 -107 -39 -9 -2 -25 -8 -35 -13 -10 -5
-47 -20 -83 -32 -36 -13 -88 -33 -117 -46 -28 -13 -57 -24 -62 -24 -6 0 -11
-7 -11 -15 0 -8 -3 -14 -7 -14 -27 4 -34 -2 -19 -16 16 -16 27 -19 25 -7 -3
20 2 25 12 12 9 -13 10 -12 5 3 -5 15 -3 16 14 7 19 -10 25 -23 20 -45 -1 -5
8 -1 19 9 12 11 21 16 21 11 0 -4 6 -2 13 4 8 6 17 8 20 4 7 -6 11 12 8 30 -1
5 3 6 9 2 5 -3 10 -1 10 4 0 6 5 11 11 11 8 0 8 -5 -1 -15 -7 -8 -9 -15 -4
-15 5 0 2 -5 -6 -10 -11 -7 -11 -10 -2 -10 7 0 11 -4 8 -9 -4 -5 3 -7 15 -4
16 4 17 8 7 14 -10 7 -8 13 11 31 14 13 19 15 12 6 -8 -11 -9 -18 -3 -18 6 0
13 4 17 10 3 5 13 6 22 3 9 -4 14 -2 11 3 -4 5 4 9 17 9 14 0 21 -5 17 -13 -2
-7 -11 -11 -19 -8 -8 3 -12 2 -9 -2 3 -5 -1 -9 -9 -9 -8 0 -15 4 -15 9 0 5 -4
7 -9 4 -10 -7 -3 -46 9 -46 4 0 13 7 20 15 7 9 19 14 27 11 8 -3 11 -1 8 4 -3
6 -1 10 4 10 6 0 11 -4 11 -10 0 -5 9 -10 21 -10 13 0 18 -4 13 -12 -4 -7 -3
-8 4 -4 6 4 8 14 5 23 -5 13 -1 15 20 11 15 -3 27 -1 27 3 0 5 7 9 15 9 8 0
15 -7 15 -16 0 -8 -4 -13 -9 -9 -5 3 -12 1 -15 -4 -11 -18 27 -4 40 14 8 10
14 15 14 11 0 -5 6 -4 13 2 8 7 18 7 27 2 15 -9 10 -12 -20 -12 -3 0 -16 -12
-30 -25 -22 -22 -22 -24 -4 -14 12 5 25 7 29 3 5 -4 5 -1 1 6 -10 17 4 15 26
-5 20 -18 25 -4 6 15 -7 7 -8 12 -2 13 5 0 17 2 26 4 10 2 21 -1 24 -6 3 -6
12 -2 19 8 13 17 14 16 8 -4 -3 -14 -1 -23 6 -23 7 0 9 5 6 10 -10 15 25 12
41 -4 12 -13 12 -16 -3 -25 -10 -6 -13 -11 -7 -11 6 0 17 7 24 15 10 12 16 13
26 4 10 -8 14 -8 14 0 0 6 -4 11 -9 11 -5 0 -12 8 -14 18 -4 16 -5 16 -6 -1 0
-10 -6 -15 -11 -12 -6 4 -8 11 -4 16 3 5 0 8 -7 7 -7 -2 -15 5 -17 15 -2 9 1
17 7 17 6 0 8 -7 5 -15 -4 -10 0 -13 16 -10 12 2 23 -2 27 -10 3 -8 9 -12 14
-9 5 3 9 -5 9 -17 0 -21 1 -22 20 -4 11 10 20 15 20 10 0 -4 6 -3 13 2 6 5 23
7 37 3 22 -5 23 -7 7 -13 -11 -4 -24 -4 -29 0 -7 3 -8 1 -4 -6 8 -12 34 -8 74
12 18 8 25 8 31 -1 10 -16 44 -4 37 14 -3 7 3 18 12 26 16 12 16 11 2 -6 -14
-18 -13 -19 3 -13 11 4 16 3 12 -3 -3 -6 -1 -10 5 -10 6 0 8 -5 5 -10 -4 -6
-12 -7 -18 -4 -7 4 -7 1 1 -7 11 -12 15 -11 26 4 7 9 18 17 25 17 6 0 11 5 11
11 0 8 6 7 17 -2 9 -8 19 -13 22 -13 3 1 5 -2 4 -7 -3 -10 23 -1 55 19 12 8
22 10 22 4 0 -17 51 -45 61 -33 5 6 6 9 2 6 -3 -3 -13 4 -20 15 -8 11 -18 18
-23 15 -5 -3 -11 -1 -15 5 -4 6 -11 8 -16 5 -5 -4 -9 -1 -9 4 0 6 -3 10 -7 9
-5 0 -17 2 -28 6 -11 4 -33 12 -50 18 -16 6 -43 16 -60 23 -37 16 -226 86
-240 90 -5 1 -17 5 -25 8 -15 7 -163 57 -164 57 -1 -1 -41 -17 -91 -36z m464
-187 c0 -9 -2 -9 -6 0 -3 9 -11 8 -29 -4 -25 -16 -41 -13 -30 6 4 6 13 8 20 5
8 -3 17 0 21 5 8 14 25 5 24 -12z m-798 4 c5 8 9 9 9 3 0 -6 -6 -16 -13 -22
-10 -8 -13 -6 -14 11 0 12 1 16 4 8 5 -11 7 -11 14 0z m640 0 c5 8 9 9 9 3 0
-6 -6 -16 -13 -22 -10 -8 -13 -6 -14 11 0 12 1 16 4 8 5 -11 7 -11 14 0z m76
-7 c-3 -3 -12 -4 -19 -1 -8 3 -5 6 6 6 11 1 17 -2 13 -5z"/>
<path d="M3340 5551 c0 -6 4 -13 10 -16 6 -3 7 1 4 9 -7 18 -14 21 -14 7z"/>
<path d="M4379 5523 c-11 -15 -11 -16 0 -6 7 6 20 9 29 6 10 -4 13 -2 8 5 -10
17 -21 15 -37 -5z"/>
<path d="M4479 5524 c-12 -15 -11 -16 10 -9 16 5 21 4 17 -4 -5 -7 -1 -9 9 -5
12 5 13 9 4 20 -15 18 -24 18 -40 -2z"/>
<path d="M3695 5520 c-3 -5 -1 -10 4 -10 6 0 11 5 11 10 0 6 -2 10 -4 10 -3 0
-8 -4 -11 -10z"/>
<path d="M4246 5515 c-9 -26 -7 -32 5 -12 6 10 9 21 6 23 -2 3 -7 -2 -11 -11z"/>
<path d="M4615 5510 c3 -5 8 -10 11 -10 2 0 4 5 4 10 0 6 -5 10 -11 10 -5 0
-7 -4 -4 -10z"/>
<path d="M3109 5489 c-154 -53 -200 -72 -197 -81 3 -9 231 -102 1083 -442 176
-70 337 -134 358 -143 21 -9 44 -16 52 -16 8 0 15 -4 15 -9 0 -4 3 -7 8 -7 4
1 23 1 42 -1 29 -1 32 -3 15 -10 -14 -6 -16 -9 -5 -11 45 -5 59 -6 57 0 -2 6
7 11 23 11 5 0 6 -8 3 -17 -5 -12 -2 -15 10 -10 8 3 18 1 21 -6 2 -7 5 -4 5 5
1 15 5 16 26 6 14 -6 25 -16 25 -21 0 -6 3 -7 7 -4 3 4 12 2 20 -4 7 -6 13 -8
13 -4 0 4 12 0 26 -10 15 -9 23 -12 19 -5 -5 8 -3 11 6 8 8 -3 13 -11 11 -17
-1 -7 2 -10 7 -6 6 3 42 -6 81 -20 38 -14 103 -37 143 -51 39 -14 74 -28 76
-30 2 -2 0 -24 -3 -49 -5 -32 -12 -45 -24 -46 -14 0 -13 -2 3 -9 14 -6 16 -9
4 -9 -10 -1 -15 -12 -16 -36 -1 -43 18 -46 52 -9 13 14 34 26 47 26 44 3 76
35 84 83 8 57 0 82 -21 65 -8 -7 -15 -9 -15 -4 0 5 -5 2 -10 -6 -8 -13 -10
-12 -10 3 0 21 -52 77 -72 78 -7 0 -3 4 10 9 27 11 29 26 2 33 -18 5 -45 -14
-35 -25 3 -2 -2 -5 -10 -5 -20 0 -19 7 2 22 15 11 12 14 -23 31 -21 10 -41 19
-44 20 -3 0 -16 6 -30 11 -94 41 -488 203 -845 348 -99 40 -236 96 -305 125
-69 29 -147 61 -175 72 -27 11 -63 26 -80 33 -16 8 -66 28 -110 45 -44 18 -84
35 -90 39 -13 10 -88 40 -141 56 -35 11 -48 11 -95 -6z m1851 -759 c0 -5 -2
-10 -4 -10 -3 0 -8 5 -11 10 -3 6 -1 10 4 10 6 0 11 -4 11 -10z m100 -280 c0
-5 -5 -10 -11 -10 -5 0 -7 5 -4 10 3 6 8 10 11 10 2 0 4 -4 4 -10z"/>
<path d="M4632 5491 c-11 -6 -10 -10 0 -19 11 -8 14 -7 14 9 0 10 0 19 -1 19
0 0 -6 -4 -13 -9z"/>
<path d="M5710 4733 c-25 -13 -61 -39 -80 -58 -38 -36 -165 -112 -300 -180
-47 -23 -155 -82 -240 -130 -85 -48 -301 -168 -480 -268 -179 -99 -336 -190
-350 -204 -25 -23 -25 -25 -30 -236 -5 -215 0 -331 16 -347 5 -5 157 79 359
199 193 114 485 288 650 386 165 98 331 196 370 219 66 40 70 44 86 99 9 32
22 64 28 71 7 8 14 25 17 37 13 65 25 128 30 159 3 19 9 50 14 69 6 21 6 61 0
101 -16 113 -23 119 -90 83z m-426 -435 c24 -34 20 -97 -10 -156 -82 -164
-189 -84 -114 85 37 84 93 116 124 71z m-302 -165 c43 -39 2 -197 -63 -244
-35 -24 -51 -24 -75 2 -40 45 -3 187 62 238 32 25 51 26 76 4z"/>
<path d="M1987 4743 c-6 -9 169 -1478 179 -1502 3 -9 7 -43 8 -76 1 -33 5 -66
10 -73 4 -7 47 -39 94 -72 93 -63 152 -114 152 -130 0 -5 6 -7 13 -5 6 3 66
-32 132 -76 255 -172 1001 -674 1030 -691 17 -11 79 -50 138 -89 60 -38 112
-67 118 -64 5 4 9 30 9 60 0 60 11 47 -135 156 -38 29 -209 145 -380 260 -320
214 -690 465 -709 480 -61 50 -65 57 -46 62 13 3 21 -1 25 -14 4 -11 10 -17
15 -14 13 8 41 -6 33 -18 -3 -5 -2 -7 4 -4 14 9 87 -36 474 -289 237 -155 227
-150 243 -128 12 16 15 16 50 -5 20 -13 39 -21 42 -18 10 10 -14 43 -51 71
-19 15 -35 34 -35 42 0 11 7 10 29 -7 46 -34 65 -20 56 39 -8 53 -17 67 -57
88 -27 14 -38 34 -19 34 6 0 30 -13 54 -30 51 -34 57 -52 57 -167 0 -56 -4
-75 -15 -79 -16 -6 -20 -41 -7 -60 4 -6 53 -42 110 -78 69 -46 102 -73 102
-86 0 -38 22 -66 81 -104 41 -26 63 -36 70 -29 15 15 -7 1631 -22 1649 -6 7
-61 40 -122 72 -402 213 -1697 893 -1710 897 -8 4 -17 3 -20 -2z m983 -708
c377 -202 693 -374 702 -384 15 -14 18 -59 24 -443 4 -236 4 -428 1 -428 -3 0
-25 13 -49 29 -24 15 -153 97 -288 181 -445 277 -502 315 -493 324 5 4 4 7 -2
6 -20 -4 -32 0 -66 26 -30 23 -31 25 -9 20 21 -5 22 -5 5 3 -11 5 -29 13 -40
17 -18 6 -18 8 -2 11 10 3 14 9 10 16 -4 7 1 6 10 -2 21 -16 22 -3 2 23 -8 10
-12 22 -10 27 3 4 -5 6 -18 5 -14 -2 -24 2 -24 10 0 7 3 13 6 12 19 -2 27 4
27 21 0 14 -4 17 -11 11 -13 -11 -14 17 -1 38 4 7 4 22 1 33 -4 13 -2 25 5 29
8 5 7 11 -5 23 -12 13 -14 21 -5 37 9 16 8 22 -5 26 -8 3 -15 17 -15 30 0 13
-4 24 -9 24 -5 0 -7 -10 -5 -22 4 -21 4 -22 -5 -3 -5 11 -7 30 -4 43 3 13 0
22 -7 22 -6 0 -8 -4 -5 -10 3 -5 1 -10 -4 -10 -13 0 -14 30 -1 50 8 12 10 12
16 -3 3 -9 10 -14 16 -11 5 3 -1 14 -13 25 -18 15 -24 17 -31 7 -5 -8 -7 -4
-6 12 2 14 8 28 13 32 6 5 3 8 -7 8 -9 0 -18 -5 -20 -12 -3 -7 -7 -5 -11 6 -4
9 -3 15 2 12 5 -3 11 0 14 8 3 8 -1 17 -9 20 -19 7 -18 22 6 46 18 18 14 26
-14 21 -11 -2 -36 19 -36 31 0 6 8 4 17 -3 13 -11 13 -8 -2 13 -11 14 -22 24
-24 22 -2 -2 -11 1 -18 8 -11 9 -16 9 -23 -1 -5 -8 -16 -11 -30 -6 -12 4 -25
3 -29 -2 -3 -5 -27 -21 -53 -36 -46 -27 -98 -82 -98 -105 0 -7 -3 -12 -8 -12
-13 0 -42 -80 -57 -157 -8 -42 -16 -77 -18 -79 -2 -2 -10 2 -19 9 -12 9 -25
94 -57 377 -23 201 -41 378 -41 393 l0 28 73 -39 c39 -22 380 -205 757 -407z
m-320 -39 c0 -2 -8 -10 -17 -17 -16 -13 -17 -12 -4 4 13 16 21 21 21 13z m90
-301 c0 -1 -7 -8 -15 -15 -13 -10 -15 -9 -15 8 0 15 5 20 15 16 8 -4 15 -7 15
-9z m0 -65 c0 -5 -2 -10 -4 -10 -3 0 -8 5 -11 10 -3 6 -1 10 4 10 6 0 11 -4
11 -10z m-415 -105 c30 -20 55 -40 55 -46 0 -6 -7 -6 -20 1 -29 16 -33 -2 -20
-101 12 -103 12 -106 1 -94 -5 6 -15 55 -21 110 -10 83 -16 104 -36 126 -23
24 -30 39 -19 39 2 0 29 -16 60 -35z m110 -90 c5 -45 12 -59 38 -79 17 -14 28
-28 24 -32 -4 -4 -13 -2 -19 4 -23 23 -29 11 -27 -48 3 -66 -7 -91 -15 -39 -7
45 -26 223 -26 244 0 38 18 1 25 -50z m318 -6 c-5 -19 -7 -19 -15 -5 -10 18
-2 39 12 31 4 -3 6 -15 3 -26z m-229 -151 c12 -57 15 -118 6 -118 -9 0 -13 17
-24 103 -5 39 11 52 18 15z m101 -19 c12 -19 -5 -23 -22 -6 -16 16 -16 17 -1
17 9 0 20 -5 23 -11z m-5 -64 c7 -4 16 -1 21 6 10 17 15 11 24 -24 8 -30 -3
-34 -36 -16 -15 7 -24 7 -34 -1 -11 -10 -15 -6 -20 17 -4 15 -8 34 -11 41 -2
6 -1 19 3 28 4 12 10 9 23 -14 10 -17 24 -33 30 -37z m224 4 c38 -30 32 -44
-8 -20 -48 30 -60 12 -53 -75 3 -47 2 -63 -6 -55 -6 6 -13 37 -15 70 -3 47 -1
63 14 79 24 26 36 26 68 1z m-524 -50 c0 -19 -1 -19 -32 -3 -18 10 -27 19 -20
21 6 3 12 14 12 26 1 22 1 22 20 -2 11 -13 20 -32 20 -42z m605 -108 c8 -57 0
-91 -21 -91 -8 0 -14 -4 -14 -10 0 -18 -26 -11 -54 15 -35 33 -33 51 3 24 46
-34 61 -21 61 51 0 34 -5 71 -11 83 -10 22 -10 22 9 0 11 -13 23 -45 27 -72z
m-270 49 c3 -6 0 -10 -7 -10 -15 0 -38 19 -38 32 0 10 36 -8 45 -22z m339 -69
c14 -15 15 -24 7 -40 -6 -11 -11 -43 -11 -72 0 -80 -17 -47 -25 49 -7 85 -2
97 29 63z m-423 -26 c11 6 11 5 2 -5 -12 -14 -33 -6 -33 13 0 8 3 7 9 -2 5 -8
14 -10 22 -6z m547 -45 c21 -20 29 -40 15 -40 -10 0 -53 42 -53 52 0 14 15 9
38 -12z m52 -148 c0 -62 -1 -64 -18 -49 -10 10 -23 17 -29 17 -17 0 -63 59
-63 80 0 20 19 30 56 30 13 0 24 6 24 13 0 7 7 4 15 -7 10 -13 15 -43 15 -84z
m57 77 c6 -6 22 -16 34 -23 38 -19 61 -71 67 -149 5 -66 4 -71 -11 -58 -13 10
-17 30 -17 78 0 56 -3 67 -26 90 -34 34 -46 17 -38 -53 4 -32 2 -54 -5 -58
-12 -8 -18 14 -26 112 -6 70 -1 84 22 61z m165 -196 c3 -29 4 -53 2 -53 -15 0
-34 39 -34 69 0 75 25 62 32 -16z m243 -63 c10 -11 16 -23 13 -25 -9 -10 -58
17 -58 32 0 19 24 16 45 -7z m-45 -24 c8 -22 37 -46 54 -46 3 0 6 7 6 16 0 14
3 14 15 4 8 -7 15 -28 15 -46 l0 -35 -31 16 c-16 9 -38 15 -47 13 -30 -5 -42
12 -42 58 0 48 15 58 30 20z m46 -132 c33 -26 44 -44 25 -44 -13 0 -71 50 -71
61 0 14 9 11 46 -17z"/>
<path d="M2783 3455 c0 -8 4 -12 9 -9 5 3 6 10 3 15 -9 13 -12 11 -12 -6z"/>
<path d="M3085 2851 c-7 -12 41 -68 50 -59 11 11 -3 42 -24 55 -12 7 -23 9
-26 4z"/>
<path d="M5125 4701 c-6 -11 13 -26 22 -17 4 3 1 6 -6 6 -7 0 -9 5 -6 10 3 6
4 10 1 10 -3 0 -7 -4 -11 -9z"/>
<path d="M4995 4409 c-4 -6 -5 -12 -2 -15 2 -3 7 2 10 11 7 17 1 20 -8 4z"/>
<path d="M5679 3232 c-59 -38 -86 -57 -123 -86 -33 -25 -37 -26 -27 -9 16 31
14 43 -7 43 -27 0 -42 -20 -42 -55 0 -23 -8 -37 -30 -54 -17 -12 -35 -19 -40
-16 -17 10 -49 -5 -55 -26 -8 -24 -93 -109 -109 -109 -7 0 -23 -11 -36 -25
-30 -32 -50 -32 -50 -1 0 14 -4 27 -9 30 -13 8 -61 -52 -61 -76 0 -25 -67
-101 -90 -103 -8 -1 -33 -13 -55 -28 -38 -26 -40 -26 -47 -7 -9 23 -40 26 -58
5 -13 -16 -28 -255 -15 -255 4 0 20 10 35 23 15 12 35 27 44 32 10 6 26 35 36
65 l19 55 0 -37 c1 -43 10 -47 36 -18 10 11 32 27 48 35 30 15 70 43 168 118
l49 38 -20 -38 c-11 -21 -20 -57 -20 -80 0 -39 2 -43 25 -43 32 0 60 44 76
119 8 41 8 55 -1 61 -7 5 18 30 70 69 45 33 85 61 89 61 5 0 14 7 21 15 7 8
26 21 43 30 33 17 41 12 53 -32 9 -33 37 -28 73 12 36 41 57 109 45 145 -5 14
-6 52 -3 85 3 33 3 63 0 67 -4 4 -18 0 -32 -10z"/>
<path d="M2199 2983 c-2 -17 2 -79 7 -94 2 -9 62 -56 132 -105 70 -48 145
-102 167 -120 38 -31 648 -456 893 -622 62 -42 190 -130 284 -194 95 -65 176
-118 180 -118 4 0 8 26 8 58 0 69 -1 70 -137 161 -51 34 -107 74 -125 90 -18
15 -127 93 -243 172 -115 79 -244 167 -285 196 -41 29 -104 72 -140 97 -36 25
-99 68 -140 97 -214 150 -320 222 -363 247 -27 15 -88 53 -135 85 -86 57 -101
64 -103 50z"/>
<path d="M5454 2823 c-110 -105 -166 -221 -150 -308 16 -84 86 -65 204 55 99
100 142 259 86 314 -30 30 -57 18 -140 -61z m96 -89 c0 -43 -25 -94 -47 -94
-13 0 -15 9 -11 50 5 49 32 95 49 84 5 -3 9 -21 9 -40z m-128 -86 c9 -60 -24
-138 -59 -138 -18 0 -17 70 3 120 18 45 50 55 56 18z"/>
<path d="M2220 2758 c0 -13 5 -40 10 -60 10 -33 31 -51 213 -179 111 -78 245
-175 297 -214 129 -97 394 -287 510 -365 52 -35 207 -144 345 -243 137 -99
255 -181 262 -184 17 -7 18 97 1 119 -7 8 -89 68 -183 133 -93 65 -197 139
-230 165 -72 56 -817 582 -895 632 -30 19 -113 76 -183 126 -71 51 -133 92
-138 92 -5 0 -9 -10 -9 -22z"/>
<path d="M5995 2689 c-115 -43 -186 -75 -198 -90 -9 -12 -15 -24 -12 -27 3 -3
90 26 194 64 165 59 191 72 196 92 3 14 5 25 3 27 -2 1 -84 -28 -183 -66z"/>
<path d="M5621 2676 c-24 -39 -28 -86 -7 -86 23 0 66 59 66 91 0 41 -32 39
-59 -5z"/>
<path d="M2244 2578 c4 -34 10 -66 12 -70 7 -11 1581 -1157 1598 -1164 14 -5
16 5 16 64 l0 70 -42 31 c-23 17 -47 30 -53 28 -5 -3 -9 -21 -8 -41 2 -23 -2
-36 -10 -36 -16 0 -1366 983 -1389 1011 -10 12 -18 35 -18 53 0 17 -7 41 -15
53 -15 21 -75 63 -90 63 -4 0 -4 -28 -1 -62z"/>
<path d="M4720 2558 c-24 -18 -58 -42 -77 -53 -18 -11 -47 -34 -65 -50 -17
-16 -47 -37 -67 -46 -20 -9 -57 -35 -83 -58 -25 -22 -51 -41 -56 -41 -6 0 -30
-15 -54 -33 -24 -18 -57 -41 -75 -52 -30 -17 -33 -17 -57 -1 -23 15 -29 15
-54 2 -36 -19 -82 -62 -82 -77 0 -7 -6 -20 -13 -28 -8 -9 -19 -41 -26 -72 -10
-46 -9 -61 3 -91 9 -20 22 -38 30 -41 17 -7 100 44 118 73 7 11 20 20 29 20
21 0 46 29 60 68 11 33 29 43 29 17 0 -23 13 -18 76 29 100 74 104 80 104 133
0 35 3 44 10 33 5 -8 10 -25 10 -37 0 -18 6 -23 24 -23 17 0 23 -5 22 -17 -2
-24 26 -21 70 8 22 15 45 45 61 80 19 39 40 64 70 85 43 29 68 74 44 82 -8 3
-5 15 10 39 18 28 20 39 10 59 -14 31 -19 30 -71 -8z m-595 -486 c-9 -47 -12
-52 -30 -45 -20 7 -19 42 1 83 15 28 18 30 26 15 6 -9 7 -33 3 -53z"/>
<path d="M6062 1757 c-564 -503 -1134 -1010 -1245 -1106 -90 -78 -107 -98
-107 -122 0 -31 -83 -103 1368 1194 199 179 312 286 312 298 0 11 -2 19 -5 19
-3 0 -148 -127 -323 -283z"/>
<path d="M1432 1814 c2 -10 199 -189 438 -398 239 -208 621 -541 849 -740 227
-198 417 -363 422 -364 5 -2 9 7 8 20 0 17 -32 50 -123 125 -112 93 -610 524
-1306 1128 -146 127 -271 235 -278 239 -10 6 -13 3 -10 -10z"/>
</g>
</svg>
